<svg width="20" height="20" viewBox="0 0 20 20" fill="none" xmlns="http://www.w3.org/2000/svg">
<path d="M19 4H14V2.33C13.9765 1.68982 13.7002 1.08506 13.2316 0.648294C12.7629 0.211527 12.1402 -0.0216056 11.5 1.33307e-06H8.5C7.85975 -0.0216056 7.23706 0.211527 6.76843 0.648294C6.2998 1.08506 6.02346 1.68982 6 2.33V4H1C0.734784 4 0.48043 4.10536 0.292893 4.29289C0.105357 4.48043 0 4.73479 0 5C0 5.26522 0.105357 5.51957 0.292893 5.70711C0.48043 5.89464 0.734784 6 1 6H2V17C2 17.7957 2.31607 18.5587 2.87868 19.1213C3.44129 19.6839 4.20435 20 5 20H15C15.7956 20 16.5587 19.6839 17.1213 19.1213C17.6839 18.5587 18 17.7957 18 17V6H19C19.2652 6 19.5196 5.89464 19.7071 5.70711C19.8946 5.51957 20 5.26522 20 5C20 4.73479 19.8946 4.48043 19.7071 4.29289C19.5196 4.10536 19.2652 4 19 4ZM8 2.33C8 2.17 8.21 2 8.5 2H11.5C11.79 2 12 2.17 12 2.33V4H8V2.33ZM16 17C16 17.2652 15.8946 17.5196 15.7071 17.7071C15.5196 17.8946 15.2652 18 15 18H5C4.73478 18 4.48043 17.8946 4.29289 17.7071C4.10536 17.5196 4 17.2652 4 17V6H16V17Z" fill="white"/>
</svg>
